<?xml version="1.0" encoding="UTF-8" standalone="no"?>
<svg width="166px" height="80px" viewBox="0 0 166 80" version="1.1" xmlns="http://www.w3.org/2000/svg" xmlns:xlink="http://www.w3.org/1999/xlink" xmlns:sketch="http://www.bohemiancoding.com/sketch/ns">
    <!-- Generator: Sketch 3.2 (9961) - http://www.bohemiancoding.com/sketch -->
    <title>logo-group 2</title>
    <desc>Created with Sketch.</desc>
    <defs>
        <radialGradient cx="90.8949256%" cy="23.727177%" fx="90.8949256%" fy="23.727177%" r="98.5940608%" id="radialGradient-1">
            <stop stop-color="#FFFFFF" offset="0%"></stop>
            <stop stop-color="#D5E6ED" offset="100%"></stop>
        </radialGradient>
    </defs>
    <g id="Page-1" stroke="none" stroke-width="1" fill="none" fill-rule="evenodd" sketch:type="MSPage">
        <g id="Artboard-6" sketch:type="MSArtboardGroup" transform="translate(-213.000000, -852.000000)">
            <g id="logo-group-2" sketch:type="MSLayerGroup" transform="translate(213.000000, 852.000000)">
                <path d="M34.8180808,0.0544502618 C35.015101,0.0544502618 35.4091414,0.0502617801 35.6019697,0.0460732984 C35.6648485,6.14450262 35.69,12.2471204 35.5893939,18.3455497 C35.4007576,18.3455497 35.0234848,18.3455497 34.8348485,18.3413613 C34.7216667,12.2513089 34.7510101,6.1486911 34.8180808,0.0544502618" id="Fill-2" fill="#FF6627" sketch:type="MSShapeGroup"></path>
                <path d="M19.815202,2.5591623 C19.9577273,2.46282723 20.2469697,2.27434555 20.3894949,2.18219895 C22.6824747,6.80628272 24.7532828,11.5350785 26.9791919,16.1926702 C27.4906061,17.2397906 27.9517172,18.3204188 28.1948485,19.4638743 C27.180404,18.7434555 26.7737879,17.5497382 26.2665657,16.4691099 C24.1622222,11.8115183 21.9321212,7.20837696 19.815202,2.5591623" id="Fill-3" fill="#FF6627" sketch:type="MSShapeGroup"></path>
                <path d="M47.1884343,5.62931937 C47.6872727,4.33089005 47.7291919,2.70994764 48.9616162,1.84293194 C47.9136364,6.60104712 46.1362626,11.1748691 44.7822727,15.8534031 C44.2876263,17.2691099 44.1534848,18.9403141 42.954596,19.991623 C43.9438889,15.0994764 45.855404,10.4376963 47.1884343,5.62931937" id="Fill-4" fill="#FF6627" sketch:type="MSShapeGroup"></path>
                <path d="M59.3408081,9.41989529 C60.1163131,8.2052356 60.7031818,6.76439791 62.0068687,5.99790576 C61.6463636,7.04921466 61.1181818,8.02931937 60.5187374,8.96335079 C58.4479293,12.217801 56.4777273,15.5350785 54.4530303,18.8188482 C53.690101,20.0502618 53.0193939,21.382199 51.8666162,22.3120419 C52.1265152,21.2188482 52.654697,20.226178 53.2541414,19.2879581 C55.3249495,16.0251309 57.3119192,12.7078534 59.3408081,9.41989529" id="Fill-5" fill="#FF6627" sketch:type="MSShapeGroup"></path>
                <path d="M7.7760101,9.65445026 C9.61207071,10.9193717 11.0037879,12.686911 12.5589899,14.2575916 C14.3615152,16.0795812 16.2059596,17.8596859 17.9665657,19.7277487 C19.0606566,20.9005236 20.3769192,21.947644 20.9973232,23.4764398 C19.6014141,22.6722513 18.5240909,21.4617801 17.4341919,20.3015707 C15.2334343,17.8848168 12.7853535,15.7068063 10.6181313,13.260733 C9.61207071,12.113089 8.24131313,11.1832461 7.7760101,9.65445026" id="Fill-6" fill="#FF6627" sketch:type="MSShapeGroup"></path>
                <path d="M97.3531313,21.8680628 C101.381566,18.0732984 106.671768,15.1874346 112.347626,15.4094241 C121.917778,15.3465969 130.678889,22.9235602 132.540101,32.2010471 C133.131162,35.1958115 133.080859,38.3329843 132.301162,41.2900524 C131.894545,42.8649215 131.102273,44.3015707 130.632778,45.8513089 C130.209394,46.9445026 131.068737,48.1172775 132.062222,48.5235602 C133.843788,49.252356 135.872677,49.4910995 137.381768,50.7895288 C146.075808,57.7340314 154.723737,64.7413613 163.476465,71.6188482 C164.650202,72.565445 166.037727,73.7256545 165.920354,75.3926702 C165.744293,77.1727749 164.465758,79.3089005 162.428485,79.1204188 C162.411717,78.6387435 162.399141,78.1570681 162.357222,77.6795812 C162.290152,77.2565445 162.214697,76.8418848 162.143434,76.4272251 C162.801566,76.5612565 163.463889,76.6743455 164.130404,76.8041885 C163.941768,76.2596859 163.748939,75.7193717 163.539343,75.1874346 C163.090808,73.6251309 162.055404,72.3434555 160.743333,71.4094241 C153.118232,65.5078534 145.639848,59.426178 138.127929,53.382199 C135.31096,51.0617801 131.383131,50.3162304 129.035657,47.4094241 C128.239192,46.5675393 128.922475,45.4324607 129.194949,44.5235602 C130.825606,40.4649215 131.483737,35.7445026 129.752475,31.6104712 C128.230808,25.8680628 123.871212,21.034555 118.400758,18.7727749 C113.290808,16.7287958 107.292172,16.8502618 102.370859,19.3717277 C100.182677,20.4272251 98.304697,21.9979058 96.5776263,23.6816754 C96.7788384,23.0617801 96.8459091,22.3371728 97.3531313,21.8680628" id="Fill-7" fill="#E7E7E7" sketch:type="MSShapeGroup"></path>
                <path d="M102.370859,19.3717277 C107.292172,16.8502618 113.290808,16.7287958 118.400758,18.7727749 C123.871212,21.034555 128.230808,25.8680628 129.752475,31.6104712 L129.752475,31.9748691 C128.289495,27.4136126 125.367727,23.2628272 121.184192,20.8251309 C113.668081,16.1298429 103.003838,18.1151832 97.2441414,24.7036649 C93.9367172,28.1926702 92.6707576,33.0973822 92.3521717,37.7717277 C92.804899,40.8544503 93.4420707,43.9706806 94.9805051,46.7183246 C96.4015657,49.2984293 98.5184848,51.4764398 100.962374,53.1099476 C103.22601,54.3874346 105.590253,55.7193717 108.231162,55.9623037 C111.421212,56.1298429 114.745404,56.3183246 117.746818,55.0073298 C119.046313,54.5675393 120.295505,53.9685864 121.406364,53.1518325 C120.010455,54.5717277 118.006717,55.078534 116.166465,55.6565445 C107.359242,58.2659686 96.8249495,53.6041885 93.3666162,44.9717277 C91.3670707,41.017801 91.1155556,36.347644 92.1006566,32.0795812 C93.1109091,29.0722513 94.3894444,26.0356021 96.5776263,23.6816754 C98.304697,21.9979058 100.182677,20.4272251 102.370859,19.3717277" id="Fill-8" fill="#494A4D" sketch:type="MSShapeGroup"></path>
                <path d="M97.2441414,24.7036649 C103.003838,18.1151832 113.668081,16.1298429 121.184192,20.8251309 C125.367727,23.2628272 128.289495,27.4136126 129.752475,31.9748691 C129.798586,35.4638743 130.351919,39.0450262 129.236869,42.4335079 C128.058939,46.8439791 124.868889,50.3413613 121.406364,53.1518325 C120.295505,53.9685864 119.046313,54.5675393 117.746818,55.0073298 C115.923333,53.7005236 113.944747,52.6366492 111.936818,51.6439791 C113.517172,51.4429319 115.089141,51.1832461 116.669495,50.9780105 C117.281515,50.9696335 117.901919,50.965445 118.518131,50.9570681 C118.518131,49.4115183 118.518131,47.8617801 118.526515,46.3120419 C117.591717,46.2910995 116.648535,46.3246073 115.722121,46.1780105 C114.97596,45.6586387 115.089141,44.6827225 114.992727,43.8910995 C114.913081,41.6879581 114.996919,39.4848168 114.959192,37.2816754 C114.971768,35.4973822 114.816667,33.6712042 115.357424,31.9413613 C116.761717,31.9120419 118.266616,31.8827225 119.49904,32.6743455 C121.192576,33.5832461 122.11899,35.3424084 123.087323,36.9172775 C124.449697,36.3434555 125.799495,35.7277487 127.161869,35.1455497 C126.097121,31.9455497 124.751515,28.8460733 123.519091,25.7089005 C122.663939,25.7256545 121.800404,25.6795812 120.949444,25.8010471 C120.064949,26.2240838 119.306212,27.0617801 118.241465,26.9319372 C113.471061,26.9235602 108.700657,26.9319372 103.930253,26.9235602 C102.873889,27.0324607 102.119343,26.1905759 101.222273,25.8010471 C100.383889,25.6837696 99.5329293,25.7172775 98.6903535,25.704712 C97.5962626,28.4942408 96.4728283,31.2712042 95.3577778,34.0565445 C94.3852525,35.3172775 93.3582323,36.5361257 92.3521717,37.7717277 C92.6707576,33.0973822 93.9367172,28.1926702 97.2441414,24.7036649" id="Fill-9" fill="#F2F8FA" sketch:type="MSShapeGroup"></path>
                <path d="M43.5498485,22.1235602 C44.5684848,20.7832461 46.2410606,20.7371728 47.7794949,20.8712042 C48.9364646,24.7748691 50.0389394,28.695288 51.0198485,32.6492147 C49.6071717,33.1141361 48.1777273,33.5329843 46.7273232,33.8513089 C45.1763131,31.1664921 43.6420707,28.1926702 40.8083333,26.6513089 C37.8236869,24.8670157 33.6904545,25.3905759 31.2549495,27.8743455 C28.9493939,30.2157068 28.1613131,33.6544503 28.2996465,36.8544503 C28.375101,40.6701571 29.8841919,44.6743455 32.9987879,47.0324607 C35.0402525,48.6115183 37.7859596,48.7748691 40.2340404,48.2931937 C43.7468687,47.313089 46.48,44.6701571 48.6556061,41.8554974 C49.8838384,42.6680628 51.0617677,43.5518325 52.2061616,44.4774869 C49.4688384,48.5235602 45.7422222,52.3643979 40.7915657,53.4366492 C35.5810101,54.8230366 29.5069192,54.1109948 25.3191919,50.513089 C19.8487374,45.9979058 17.7988889,38.0104712 20.1044444,31.3507853 C21.5506566,26.8984293 25.0341414,23.1455497 29.4314646,21.486911 C33.9629293,19.652356 39.1525253,20.1172775 43.5498485,22.1235602 Z" id="Fill-10" fill="#FF6627" sketch:type="MSShapeGroup"></path>
                <path d="M0.632979798,21.7926702 C4.93808081,23.3172775 8.80722222,25.8471204 12.9488384,27.7528796 C14.2273737,28.4481675 15.8161111,28.8335079 16.6167677,30.1528796 C12.2026768,28.5780105 8.18681818,26.0565445 3.96136364,24.0460733 C2.78762626,23.4052356 1.3330303,23.0366492 0.632979798,21.7926702" id="Fill-11" fill="#FF6627" sketch:type="MSShapeGroup"></path>
                <path d="M129.752475,31.9748691 L129.752475,31.6104712 C131.483737,35.7445026 130.825606,40.4649215 129.194949,44.5235602 C128.922475,45.4324607 128.239192,46.5675393 129.035657,47.4094241 C131.383131,50.3162304 135.31096,51.0617801 138.127929,53.382199 C145.639848,59.426178 153.118232,65.5078534 160.743333,71.4094241 C162.055404,72.3434555 163.090808,73.6251309 163.539343,75.1874346 C161.548182,73.9225131 159.762424,72.3685864 157.922172,70.9026178 C150.62404,65.0764398 143.37202,59.1832461 136.048737,53.3905759 C134.749242,52.5403141 133.613232,51.0492147 131.894545,51.2586387 C132.468838,51.9246073 133.064091,52.582199 133.755758,53.1350785 C143.937929,60.9507853 153.977576,68.9507853 164.130404,76.8041885 C163.463889,76.6743455 162.801566,76.5612565 162.143434,76.4272251 C162.214697,76.8418848 162.290152,77.2565445 162.357222,77.6795812 C158.655758,75.0115183 155.243535,71.9748691 151.625909,69.1979058 C147.069293,65.5204188 142.474949,61.8890052 137.914141,58.2198953 C135.663081,56.3434555 133.277879,54.6219895 131.202879,52.5445026 C130.431566,53.2272251 129.769242,54.0439791 129.643485,55.1036649 C128.654192,53.2691099 126.834899,52.1382199 125.049141,51.2041885 C123.955051,52.0460733 122.865152,53.0722513 121.406364,53.1518325 C124.868889,50.3413613 128.058939,46.8439791 129.236869,42.4335079 C130.351919,39.0450262 129.798586,35.4638743 129.752475,31.9748691" id="Fill-14" fill="#C4C6C8" sketch:type="MSShapeGroup"></path>
                <path d="M76.1252525,35.0115183 C78.5481818,32.565445 82.7065657,32.0209424 85.6786364,33.7465969 C87.8290909,35.0324607 88.7261616,37.6125654 88.6884343,40.0125654 C85.5109596,40.1382199 82.3334848,40.0125654 79.1560101,40.0837696 C79.1811616,41.9434555 80.5686869,43.9036649 82.5724242,43.8240838 C84.3288384,43.9748691 85.7289394,42.7518325 87.1206566,41.8764398 C87.7242929,42.5256545 88.3111616,43.191623 88.8477273,43.9036649 C87.460202,45.2188482 85.9259596,46.504712 84.035404,47.0115183 C81.4867172,47.5602094 78.5565657,47.2418848 76.6240909,45.3277487 C73.6310606,42.8230366 73.4172727,37.7968586 76.1252525,35.0115183" id="Fill-15" fill="#000000" sketch:type="MSShapeGroup"></path>
                <path d="M55.8992424,32.9842932 C59.4917172,33.0010471 63.0883838,32.9549738 66.6808586,33.0010471 C68.5127273,33.0848168 70.7218687,33.6753927 71.3087374,35.660733 C72.004596,37.3947644 70.7973232,39.0031414 69.4056061,39.9120419 C70.185303,40.4062827 71.2039394,40.7120419 71.6608586,41.5832461 C72.4028283,43.2167539 71.7656566,45.3445026 70.1811111,46.2324607 C68.9738384,46.8481675 67.5905051,47.0617801 66.2490909,47.0450262 C62.7991414,47.0240838 59.3491919,47.0575916 55.8992424,47.0240838 C55.8824747,46.1151832 55.8740909,45.2104712 55.869899,44.3015707 C56.4819192,44.2764398 57.0939394,44.1926702 57.7101515,44.1549738 C58.1293434,41.4324607 58.0371212,38.6136126 57.7646465,35.8743455 C57.1358586,35.8282723 56.5112626,35.7905759 55.8824747,35.7570681 C55.8782828,34.8314136 55.8824747,33.9099476 55.8992424,32.9842932" id="Fill-16" fill="#000000" sketch:type="MSShapeGroup"></path>
                <path d="M62.354798,35.782199 C63.5746465,35.8157068 64.8070707,35.7068063 66.0185354,35.878534 C67.2383838,36.2136126 67.3306061,37.9979058 66.3455051,38.6429319 C65.0334343,38.9193717 63.6794444,38.739267 62.3506061,38.7937173 C62.3254545,37.7884817 62.3338384,36.7832461 62.354798,35.782199" id="Fill-17" fill="#FEFEFE" sketch:type="MSShapeGroup"></path>
                <path d="M79.3069192,37.8806283 C79.6590404,36.6240838 80.6567172,35.2544503 82.1238889,35.4513089 C83.3772727,35.6062827 83.9683333,36.791623 84.245,37.8848168 C82.5975758,37.9560209 80.9501515,37.9602094 79.3069192,37.8806283" id="Fill-18" fill="#FDFDFD" sketch:type="MSShapeGroup"></path>
                <path d="M0,37.4240838 C2.65348485,37.2732984 5.3069697,37.0848168 7.96464646,37.147644 C10.7019697,37.2146597 13.4518687,36.8879581 16.185,37.2230366 C15.719697,37.5204188 15.2753535,37.9141361 14.680101,37.8429319 C9.78813131,37.9727749 4.8919697,37.9308901 0,38.0314136 L0,37.4240838" id="Fill-19" fill="#FF6627" sketch:type="MSShapeGroup"></path>
                <path d="M62.3254545,41.147644 C63.5956061,41.1643979 64.8741414,41.0722513 66.1442929,41.2062827 C67.6156566,41.2732984 67.7623737,43.6984293 66.4544949,44.1424084 C65.1005051,44.3602094 63.7171717,44.2052356 62.3464141,44.2513089 C62.3296465,43.2167539 62.3254545,42.182199 62.3254545,41.147644" id="Fill-20" fill="#FEFEFE" sketch:type="MSShapeGroup"></path>
                <path d="M12.709899,47.0492147 C13.8459091,46.4879581 15.0406061,46.0314136 16.2772222,45.7382199 C14.9693434,47.0366492 13.2213131,47.6816754 11.5906566,48.4481675 C7.71732323,50.1905759 3.90686869,52.0753927 0,53.7465969 L0,53.0219895 C4.21287879,50.982199 8.50121212,49.1015707 12.709899,47.0492147" id="Fill-22" fill="#FF6627" sketch:type="MSShapeGroup"></path>
                <g id="Fill-13-+-Fill-21-+-Fill-23" transform="translate(92.222222, 31.832461)" sketch:type="MSShapeGroup">
                    <path d="M10.7145455,0.69947644 C11.9469697,-0.0628272251 13.435101,0.0753926702 14.8100505,0.180104712 C14.9819192,4.87120419 15.0070707,9.57905759 14.7807071,14.2659686 C13.6488889,12.6910995 12.4625758,11.1581152 11.2804545,9.62513089 C8.37545455,11.2712042 5.55429293,13.0638743 2.75828283,14.8858639 C1.21984848,12.1382199 0.582676768,9.02198953 0.129949495,5.93926702 C1.1360101,4.70366492 2.1630303,3.48481675 3.13555556,2.22408377 C3.08525253,2.49633508 2.98045455,3.0408377 2.93015152,3.31308901 C4.22964646,3.92041885 5.54590909,4.51099476 6.87893939,5.0513089 C7.92691919,3.43036649 8.90782828,1.59162304 10.7145455,0.69947644" id="Fill-13" fill="#DEECF0"></path>
                    <path d="M2.75828283,14.8858639 C5.55429293,13.0638743 8.37545455,11.2712042 11.2804545,9.62513089 C12.4625758,11.1581152 13.6488889,12.6910995 14.7807071,14.2659686 C13.6572727,14.4125654 12.5212626,14.4376963 11.3936364,14.513089 L11.100202,14.5424084 C10.9618687,15.8073298 10.9409091,17.0848168 10.6977778,18.3329843 C10.4923737,19.547644 9.49888889,20.3853403 8.74015152,21.2774869 C6.29626263,19.6439791 4.17934343,17.4659686 2.75828283,14.8858639" id="Fill-21" fill="#CEE2E9"></path>
                    <path d="M11.100202,14.5424084 L11.3936364,14.513089 C11.3559091,16.0502618 11.3642929,17.591623 11.3684848,19.1329843 C15.7280808,19.1455497 20.0876768,19.0910995 24.4472727,19.1455497 C22.8669192,19.3507853 21.2949495,19.6104712 19.714596,19.8115183 C21.7225253,20.8041885 23.7011111,21.8680628 25.524596,23.1748691 C22.5231818,24.4858639 19.1989899,24.2973822 16.0089394,24.1298429 C13.3680303,23.886911 11.0037879,22.5549738 8.74015152,21.2774869 C9.49888889,20.3853403 10.4923737,19.547644 10.6977778,18.3329843 C10.9409091,17.0848168 10.9618687,15.8073298 11.100202,14.5424084" id="Fill-23" fill="#BDD7E1"></path>
                </g>
                <path d="M11.7709091,61.1643979 C15.1957071,57.6544503 18.2264646,53.721466 22.0075758,50.5842932 C21.475202,52.347644 19.8655051,53.3905759 18.7169192,54.7225131 C16.5580808,57.1727749 14.2609091,59.5015707 12.1020707,61.9518325 C10.8570707,63.2795812 9.69171717,64.7120419 8.20358586,65.7842932 C8.83237374,63.8743455 10.5175253,62.6471204 11.7709091,61.1643979" id="Fill-24" fill="#FF6627" sketch:type="MSShapeGroup"></path>
                <path d="M131.894545,51.2586387 C133.613232,51.0492147 134.749242,52.5403141 136.048737,53.3905759 C143.37202,59.1832461 150.62404,65.0764398 157.922172,70.9026178 C159.762424,72.3685864 161.548182,73.9225131 163.539343,75.1874346 C163.748939,75.7193717 163.941768,76.2596859 164.130404,76.8041885 C153.977576,68.9507853 143.937929,60.9507853 133.755758,53.1350785 C133.064091,52.582199 132.468838,51.9246073 131.894545,51.2586387" id="Fill-25" fill="#131313" sketch:type="MSShapeGroup"></path>
                <path d="M129.643485,55.1036649 C129.769242,54.0439791 130.431566,53.2272251 131.202879,52.5445026 C133.277879,54.6219895 135.663081,56.3434555 137.914141,58.2198953 C142.474949,61.8890052 147.069293,65.5204188 151.625909,69.1979058 C155.243535,71.9748691 158.655758,75.0115183 162.357222,77.6795812 C162.399141,78.1570681 162.411717,78.6387435 162.428485,79.1204188 C161.812273,79.4429319 161.116414,80.2764398 160.382828,79.7486911 C150.129394,71.547644 139.926263,63.2712042 129.643485,55.1036649" id="Fill-26" fill="#010202" sketch:type="MSShapeGroup"></path>
                <path d="M48.8316667,52.6910995 C50.2904545,53.3403141 51.2671717,54.6387435 52.3570707,55.7486911 C54.6919697,58.2994764 57.0855556,60.7958115 59.4917172,63.2795812 C60.6612626,64.4732984 61.9439899,65.6335079 62.6314646,67.1958115 C62.040404,66.8481675 61.4619192,66.4712042 60.9840404,65.9727749 C58.2970202,63.2167539 55.7441414,60.3267016 53.0361616,57.591623 C51.5941414,55.991623 49.8586869,54.6136126 48.8316667,52.6910995" id="Fill-27" fill="#FF6627" sketch:type="MSShapeGroup"></path>
                <path d="M24.1370707,62.173822 C25.4323737,59.6900524 26.3210606,56.9340314 28.1403535,54.7685864 C27.8846465,56.7790576 26.6731818,58.4544503 25.8641414,60.2638743 C24.7784343,62.626178 23.5795455,64.9340314 22.4225758,67.2628272 C21.7518687,68.5696335 21.2656061,70.052356 20.075101,70.9989529 C20.905101,67.8534031 22.8543434,65.1434555 24.1370707,62.173822" id="Fill-28" fill="#FF6627" sketch:type="MSShapeGroup"></path>
                <path d="M42.7533838,55.0701571 C43.7929798,56.1382199 44.0444949,57.6460733 44.4888384,59.0115183 C45.7464141,63.0366492 47.0878283,67.0324607 48.3370202,71.0617801 C48.555,71.6397906 48.5172727,72.2554974 48.3370202,72.8418848 C46.9159596,69.8471204 46.2536364,66.5633508 45.1092424,63.4638743 C44.3630808,60.6575916 43.0635859,57.9769634 42.7533838,55.0701571" id="Fill-29" fill="#FF6627" sketch:type="MSShapeGroup"></path>
                <ellipse id="Oval-1" stroke-opacity="0.713569973" stroke="#000000" fill="#000000" sketch:type="MSShapeGroup" cx="111.085859" cy="36.8586387" rx="19.7020202" ry="19.6858639"></ellipse>
                <path d="M111.714646,55.7068063 C122.016989,55.7068063 130.368687,47.3619566 130.368687,37.0680628 C130.368687,26.7741691 122.016989,18.4293194 111.714646,18.4293194 C101.412304,18.4293194 93.0606061,26.7741691 93.0606061,37.0680628 C93.0606061,47.3619566 101.412304,55.7068063 111.714646,55.7068063 Z" id="Oval-2" stroke-opacity="0.716966712" stroke="#FFFFFF" fill="url(#radialGradient-1)" sketch:type="MSShapeGroup"></path>
                <path d="M35.3420707,55.4764398 C36.0127778,56.2429319 35.8241414,57.2732984 35.8576768,58.2157068 C35.7528788,63.3424084 36.1385354,68.4649215 35.9540909,73.591623 C35.794798,73.5958115 35.4720202,73.6 35.3085354,73.6041885 C35.4929798,67.5602094 34.7216667,61.495288 35.3420707,55.4764398" id="Fill-30" fill="#FF6627" sketch:type="MSShapeGroup"></path>
                <path d="M98.6903535,25.704712 C99.5329293,25.7172775 100.383889,25.6837696 101.222273,25.8010471 C102.119343,26.1905759 102.873889,27.0324607 103.930253,26.9235602 C108.700657,26.9319372 113.471061,26.9235602 118.241465,26.9319372 C119.306212,27.0617801 120.064949,26.2240838 120.949444,25.8010471 C121.800404,25.6795812 122.663939,25.7256545 123.519091,25.7089005 C124.751515,28.8460733 126.097121,31.9455497 127.161869,35.1455497 C125.799495,35.7277487 124.449697,36.3434555 123.087323,36.9172775 C122.11899,35.3424084 121.192576,33.5832461 119.49904,32.6743455 C118.266616,31.8827225 116.761717,31.9120419 115.357424,31.9413613 C114.816667,33.6712042 114.971768,35.4973822 114.959192,37.2816754 C114.996919,39.4848168 114.913081,41.6879581 114.992727,43.8910995 C115.089141,44.6827225 114.97596,45.6586387 115.722121,46.1780105 C116.648535,46.3246073 117.591717,46.2910995 118.526515,46.3120419 C118.518131,47.8617801 118.518131,49.4115183 118.518131,50.9570681 C117.901919,50.965445 117.281515,50.9696335 116.669495,50.9780105 C112.309899,50.9235602 107.950303,50.9780105 103.590707,50.965445 C103.586515,49.4240838 103.578131,47.8827225 103.615859,46.3455497 C104.743485,46.2701571 105.879495,46.2450262 107.002929,46.0984293 C107.229293,41.4115183 107.204141,36.7036649 107.032273,32.0125654 C105.657323,31.9078534 104.169192,31.7696335 102.936768,32.5319372 C101.130051,33.4240838 100.149141,35.2628272 99.1011616,36.8837696 C97.7681313,36.3434555 96.4518687,35.7528796 95.1523737,35.1455497 C95.2026768,34.8732984 95.3074747,34.3287958 95.3577778,34.0565445 C96.4728283,31.2712042 97.5962626,28.4942408 98.6903535,25.704712" id="Fill-12" fill="#000000" sketch:type="MSShapeGroup"></path>
            </g>
        </g>
    </g>
</svg>