<?xml version="1.0" encoding="UTF-8" standalone="no"?>
<svg width="63px" height="50px" viewBox="0 0 63 50" version="1.1" xmlns="http://www.w3.org/2000/svg" xmlns:xlink="http://www.w3.org/1999/xlink" xmlns:sketch="http://www.bohemiancoding.com/sketch/ns">
    <!-- Generator: Sketch 3.2.2 (9983) - http://www.bohemiancoding.com/sketch -->
    <title>Group</title>
    <desc>Created with Sketch.</desc>
    <defs></defs>
    <g id="Page-1" stroke="none" stroke-width="1" fill="none" fill-rule="evenodd" sketch:type="MSPage">
        <g id="Home" sketch:type="MSArtboardGroup" transform="translate(-162.000000, -878.000000)" fill="#9B9B9B">
            <g id="Group" sketch:type="MSLayerGroup" transform="translate(162.000000, 878.000000)">
                <path d="M43.5421,30.5020833 C45.7695,26.0583333 45.8633,20.8729167 43.5883,16.4361111 C41.7578,12.8805556 38.836,10.25 35.1722,8.94722222 L35.1722,0.535416667 L0,0.535416667 L0,49.4625 L35.1722,49.4625 L35.1722,38.1180556 C35.9051,37.8923611 36.3167,37.6298611 36.9082,37.3263889 C38.4244,36.5486111 39.7313,35.5284722 40.9087,34.3 L60.4198,47.4527778 L63,43.5951389 L43.5421,30.5020833 L43.5421,30.5020833 Z M32.242,46.5277778 L2.9309,46.5277778 L2.9309,3.47222222 L32.242,3.47222222 L32.242,8.23958333 C31.8052,8.16041667 31.2956,8.07361111 30.7762,8.01319444 L30.7762,5.9125 L4.3967,5.9125 L4.3967,8.11527778 L26.9948,8.11527778 C26.0666,8.24930556 25.1517,8.47638889 24.2697,8.84930556 C23.975,9.01041667 23.1721,9.35833333 22.645,9.63125 C22.1998,9.86041667 21.7714,10.0548611 21.3598,10.3173611 L4.3967,10.3173611 L4.3967,12.5201389 L18.9189,12.5201389 C18.6746,12.7645833 18.4268,13.0097222 18.2,13.2541667 C17.8122,13.74375 17.4615,14.2326389 17.1269,14.7222222 L4.3967,14.7222222 L4.3967,16.925 L15.8795,16.925 C15.7633,17.1701389 15.6443,17.4152778 15.5414,17.6590278 C15.2488,18.39375 15.0045,18.39375 14.8106,19.1277778 L4.3967,19.1277778 L4.3967,21.3305556 L14.392,21.3305556 C14.3024,22.0645833 14.2576,22.7986111 14.2604,23.5333333 L4.3967,23.5333333 L4.3967,25.7347222 L14.4081,25.7347222 C14.5054,26.4694444 14.6489,27.2034722 14.8449,27.9354167 L4.3967,27.9354167 L4.3967,30.1388889 L15.603,30.1388889 L15.7213,30.1388889 C16.1742,31.0388889 16.6663,31.7604167 17.1115,32.3409722 L4.3967,32.3409722 L4.3967,34.5430556 L19.1394,34.5430556 C19.8569,35.1555556 20.9097,35.975 22.0864,36.7465278 L4.3967,36.7465278 L4.3967,38.9493056 L27.482,38.9493056 C28.21,39.0305556 28.9534,39.0548611 29.7143,39.0548611 C29.8389,39.0548611 30.0433,39.0361111 30.0433,39.0333333 C30.7755,39.0159722 31.5091,38.9506944 32.2413,38.8375 L32.2413,46.5277778 L32.242,46.5277778 Z M32.242,34.1013889 L32.242,33.8104167 L26.9759,33.8104167 C25.4667,33.8104167 24.0702,33.0756944 22.8746,31.6076389 L32.242,31.6076389 L32.242,27.9347222 L30.7762,27.9347222 L19.7652,27.9347222 C19.4775,27.2027778 19.2598,26.46875 19.1156,25.7340278 C19.0694,25.4888889 19.0421,25.2444444 19.0113,25 L32.242,25 L32.242,20.5951389 L19.278,20.5951389 C19.3207,20.3659722 19.3669,20.13125 19.4201,19.9694444 C19.5062,19.7020833 19.586,19.41875 19.712,19.1270833 C19.8163,18.8715278 19.929,18.6173611 20.0494,18.3930556 L32.242,18.3930556 L32.242,13.9875 L24.8024,13.9875 C25.3764,13.6833333 26.8058,12.7333333 29.729,12.7090278 C30.583,12.7020833 31.5091,12.7833333 32.242,12.9729167 C32.9749,13.2013889 34.44,13.5618056 35.1729,14.0409722 L35.1729,33.0208333 C35.1722,33.075 33.7064,33.7493056 32.242,34.1013889 L32.242,34.1013889 Z M39.5689,28.4743056 L39.5689,18.5944444 C41.2111,21.8138889 41.0991,25.4763889 39.5689,28.4743056 L39.5689,28.4743056 Z" id="Shape" sketch:type="MSShapeGroup"></path>
                <rect id="Rectangle-path" sketch:type="MSShapeGroup" x="4.3967" y="41.1513889" width="26.3795" height="2.20347222"></rect>
            </g>
        </g>
    </g>
</svg>